<?xml version="1.0" encoding="UTF-8"?>
<svg xmlns="http://www.w3.org/2000/svg" xmlns:xlink="http://www.w3.org/1999/xlink" width="1080pt" height="1080pt" viewBox="0 0 1080 1080" version="1.2">
<g id="surface1">
<path style=" stroke:none;fill-rule:nonzero;fill:rgb(14.898682%,14.898682%,14.898682%);fill-opacity:1;" d="M 301.792969 447.855469 C 301.792969 447.855469 295.558594 434.40625 259.144531 434.40625 C 190.25 434.40625 153.507812 490.175781 74.769531 490.175781 L 74.769531 548.898438 L 106.265625 548.898438 C 122.339844 548.898438 125.949219 540.039062 125.949219 540.039062 L 125.949219 564.316406 C 125.949219 564.316406 122.339844 555.132812 106.265625 555.132812 L 74.769531 555.132812 L 74.769531 625.335938 L 115.449219 625.335938 C 140.710938 625.335938 147.601562 614.183594 147.601562 614.183594 L 143.992188 631.570312 L 51.148438 631.570312 C 51.148438 631.570312 59.351562 629.273438 59.351562 616.808594 L 59.351562 498.375 C 59.351562 486.238281 51.148438 483.941406 51.148438 483.941406 L 74.769531 483.941406 C 154.160156 483.941406 197.140625 418.984375 267.015625 418.984375 C 306.710938 418.984375 301.792969 447.855469 301.792969 447.855469 "/>
<path style=" stroke:none;fill-rule:nonzero;fill:rgb(14.898682%,14.898682%,14.898682%);fill-opacity:1;" d="M 275.222656 595.8125 C 275.222656 618.777344 252.914062 631.570312 225.683594 631.570312 C 194.847656 631.570312 171.878906 620.414062 171.878906 620.414062 L 177.128906 609.261719 C 177.128906 609.261719 195.828125 625.335938 222.402344 625.335938 C 244.054688 625.335938 259.472656 613.527344 259.472656 598.109375 C 259.472656 563.660156 171.878906 557.753906 171.878906 516.417969 C 171.878906 494.113281 193.859375 483.941406 221.417969 483.941406 C 247.664062 483.941406 266.363281 495.097656 266.363281 495.097656 L 261.113281 505.921875 C 261.113281 505.921875 248.648438 490.175781 222.074219 490.175781 C 205.015625 490.175781 187.628906 497.394531 187.628906 512.484375 C 187.628906 546.273438 275.222656 553.492188 275.222656 595.8125 "/>
<path style=" stroke:none;fill-rule:nonzero;fill:rgb(14.898682%,14.898682%,14.898682%);fill-opacity:1;" d="M 402.839844 595.8125 C 402.839844 618.777344 380.53125 631.570312 353.300781 631.570312 C 322.464844 631.570312 299.5 620.414062 299.5 620.414062 L 304.746094 609.261719 C 304.746094 609.261719 323.449219 625.335938 350.019531 625.335938 C 371.671875 625.335938 387.09375 613.527344 387.09375 598.109375 C 387.09375 563.660156 299.5 557.753906 299.5 516.417969 C 299.5 494.113281 321.480469 483.941406 349.035156 483.941406 C 375.28125 483.941406 393.980469 495.097656 393.980469 495.097656 L 388.734375 505.921875 C 388.734375 505.921875 376.265625 490.175781 349.691406 490.175781 C 332.632812 490.175781 315.246094 497.394531 315.246094 512.484375 C 315.246094 546.273438 402.839844 553.492188 402.839844 595.8125 "/>
<path style=" stroke:none;fill-rule:nonzero;fill:rgb(14.898682%,14.898682%,14.898682%);fill-opacity:1;" d="M 527.175781 614.183594 L 523.566406 631.570312 L 430.394531 631.570312 C 430.394531 631.570312 438.597656 629.273438 438.597656 616.808594 L 438.597656 498.375 C 438.597656 486.238281 430.394531 483.941406 430.394531 483.941406 L 523.566406 483.941406 L 523.566406 500.671875 C 523.566406 500.671875 516.019531 490.175781 486.496094 490.175781 L 454.34375 490.175781 L 454.34375 548.898438 L 485.839844 548.898438 C 501.914062 548.898438 505.195312 540.039062 505.195312 540.039062 L 505.195312 564.316406 C 505.195312 564.316406 501.914062 555.132812 485.839844 555.132812 L 454.34375 555.132812 L 454.34375 625.335938 L 494.695312 625.335938 C 519.957031 625.335938 527.175781 614.183594 527.175781 614.183594 "/>
<path style=" stroke:none;fill-rule:nonzero;fill:rgb(14.898682%,14.898682%,14.898682%);fill-opacity:1;" d="M 664.960938 483.941406 C 664.960938 483.941406 656.761719 486.238281 656.761719 498.375 L 656.761719 631.570312 L 565.886719 509.859375 L 565.886719 616.808594 C 565.886719 629.273438 574.089844 631.570312 574.089844 631.570312 L 551.453125 631.570312 C 551.453125 631.570312 559.652344 629.273438 559.652344 616.808594 L 559.652344 498.375 C 559.652344 486.238281 551.453125 483.941406 551.453125 483.941406 L 565.886719 483.941406 L 650.527344 597.125 L 650.527344 498.375 C 650.527344 486.238281 642.328125 483.941406 642.328125 483.941406 Z M 664.960938 483.941406 "/>
<path style=" stroke:none;fill-rule:nonzero;fill:rgb(14.898682%,14.898682%,14.898682%);fill-opacity:1;" d="M 885.421875 696.199219 C 815.546875 696.199219 782.410156 631.570312 692.523438 631.570312 L 783.070312 490.175781 L 737.136719 490.175781 C 706.628906 490.175781 695.800781 500.671875 695.800781 500.671875 L 702.035156 483.941406 L 804.066406 483.941406 L 715.160156 623.371094 C 775.851562 627.632812 809.96875 680.78125 877.550781 680.78125 C 913.964844 680.78125 920.199219 667 920.199219 667 C 920.199219 667 925.121094 696.199219 885.421875 696.199219 "/>
<path style=" stroke:none;fill-rule:nonzero;fill:rgb(14.898682%,14.898682%,14.898682%);fill-opacity:1;" d="M 911.339844 572.191406 L 867.707031 463.929688 L 825.386719 572.191406 Z M 960.878906 631.570312 L 924.132812 631.570312 C 924.132812 631.570312 933.320312 627.960938 928.726562 616.152344 L 913.636719 578.753906 L 822.761719 578.753906 L 808.328125 616.152344 C 803.734375 627.632812 813.25 631.570312 813.25 631.570312 L 786.019531 631.570312 C 786.019531 631.570312 795.863281 628.617188 800.78125 616.480469 L 873.285156 430.464844 L 946.113281 616.152344 C 951.035156 628.617188 960.878906 631.570312 960.878906 631.570312 "/>
<path style=" stroke:none;fill-rule:nonzero;fill:rgb(14.898682%,14.898682%,14.898682%);fill-opacity:1;" d="M 249.542969 675.140625 L 253.328125 675.140625 L 262.226562 696.871094 L 262.53125 696.871094 L 271.429688 675.140625 L 275.214844 675.140625 L 275.214844 701.320312 L 272.25 701.320312 L 272.25 681.429688 L 271.992188 681.429688 L 263.8125 701.320312 L 260.945312 701.320312 L 252.765625 681.429688 L 252.511719 681.429688 L 252.511719 701.320312 L 249.542969 701.320312 Z M 249.542969 675.140625 "/>
<path style=" stroke:none;fill-rule:nonzero;fill:rgb(14.898682%,14.898682%,14.898682%);fill-opacity:1;" d="M 296.890625 701.320312 L 296.890625 675.136719 L 312.691406 675.136719 L 312.691406 677.953125 L 300.0625 677.953125 L 300.0625 686.796875 L 311.875 686.796875 L 311.875 689.609375 L 300.0625 689.609375 L 300.0625 698.507812 L 312.898438 698.507812 L 312.898438 701.320312 Z M 296.890625 701.320312 "/>
<path style=" stroke:none;fill-rule:nonzero;fill:rgb(14.898682%,14.898682%,14.898682%);fill-opacity:1;" d="M 336.925781 698.507812 L 341.628906 698.507812 C 343.792969 698.507812 345.589844 698.089844 347.011719 697.253906 C 348.433594 696.421875 349.496094 695.230469 350.195312 693.6875 C 350.894531 692.144531 351.242188 690.308594 351.242188 688.179688 C 351.242188 686.066406 350.898438 684.242188 350.207031 682.714844 C 349.515625 681.183594 348.488281 680.007812 347.113281 679.183594 C 345.742188 678.363281 344.035156 677.949219 341.988281 677.949219 L 336.925781 677.949219 Z M 341.835938 701.320312 L 333.753906 701.320312 L 333.753906 675.140625 L 342.191406 675.140625 C 344.730469 675.140625 346.90625 675.660156 348.710938 676.703125 C 350.519531 677.75 351.90625 679.242188 352.867188 681.191406 C 353.832031 683.140625 354.3125 685.46875 354.3125 688.179688 C 354.3125 690.90625 353.828125 693.253906 352.855469 695.214844 C 351.882812 697.179688 350.46875 698.691406 348.609375 699.742188 C 346.753906 700.792969 344.492188 701.320312 341.835938 701.320312 "/>
<path style=" stroke:none;fill-rule:nonzero;fill:rgb(14.898682%,14.898682%,14.898682%);fill-opacity:1;" d="M 378.136719 701.320312 L 374.964844 701.320312 L 374.964844 675.140625 L 378.136719 675.140625 Z M 378.136719 701.320312 "/>
<path style=" stroke:none;fill-rule:nonzero;fill:rgb(14.898682%,14.898682%,14.898682%);fill-opacity:1;" d="M 420.882812 683.320312 L 417.710938 683.320312 C 417.523438 682.410156 417.199219 681.609375 416.734375 680.917969 C 416.269531 680.226562 415.707031 679.644531 415.046875 679.171875 C 414.382812 678.699219 413.652344 678.34375 412.851562 678.105469 C 412.050781 677.867188 411.214844 677.746094 410.347656 677.746094 C 408.761719 677.746094 407.328125 678.148438 406.046875 678.949219 C 404.761719 679.75 403.746094 680.929688 402.988281 682.488281 C 402.234375 684.050781 401.859375 685.964844 401.859375 688.230469 C 401.859375 690.496094 402.234375 692.410156 402.988281 693.96875 C 403.746094 695.53125 404.761719 696.710938 406.046875 697.511719 C 407.328125 698.3125 408.761719 698.710938 410.347656 698.710938 C 411.214844 698.710938 412.050781 698.59375 412.851562 698.355469 C 413.652344 698.117188 414.382812 697.757812 415.046875 697.289062 C 415.707031 696.8125 416.269531 696.230469 416.734375 695.535156 C 417.199219 694.839844 417.523438 694.042969 417.710938 693.136719 L 420.882812 693.136719 C 420.640625 694.476562 420.207031 695.675781 419.578125 696.730469 C 418.945312 697.789062 418.164062 698.683594 417.226562 699.421875 C 416.289062 700.160156 415.238281 700.71875 414.074219 701.101562 C 412.910156 701.488281 411.667969 701.679688 410.347656 701.679688 C 408.113281 701.679688 406.128906 701.132812 404.390625 700.042969 C 402.652344 698.953125 401.285156 697.402344 400.285156 695.386719 C 399.289062 693.378906 398.789062 690.992188 398.789062 688.230469 C 398.789062 685.46875 399.289062 683.082031 400.285156 681.070312 C 401.285156 679.058594 402.652344 677.507812 404.390625 676.417969 C 406.128906 675.328125 408.113281 674.78125 410.347656 674.78125 C 411.667969 674.78125 412.910156 674.972656 414.074219 675.355469 C 415.238281 675.738281 416.289062 676.300781 417.226562 677.039062 C 418.164062 677.773438 418.945312 678.667969 419.578125 679.722656 C 420.207031 680.773438 420.640625 681.972656 420.882812 683.320312 "/>
<path style=" stroke:none;fill-rule:nonzero;fill:rgb(14.898682%,14.898682%,14.898682%);fill-opacity:1;" d="M 443.632812 691.09375 L 457.03125 691.09375 L 457.03125 693.90625 L 443.632812 693.90625 Z M 442.402344 701.320312 L 439.082031 701.320312 L 448.695312 675.140625 L 451.96875 675.140625 L 461.582031 701.320312 L 458.257812 701.320312 L 450.433594 679.28125 L 450.230469 679.28125 Z M 442.402344 701.320312 "/>
<path style=" stroke:none;fill-rule:nonzero;fill:rgb(14.898682%,14.898682%,14.898682%);fill-opacity:1;" d="M 481.007812 701.320312 L 481.007812 675.136719 L 484.175781 675.136719 L 484.175781 698.507812 L 496.347656 698.507812 L 496.347656 701.320312 Z M 481.007812 701.320312 "/>
<path style=" stroke:none;fill-rule:nonzero;fill:rgb(14.898682%,14.898682%,14.898682%);fill-opacity:1;" d="M 563.121094 683.320312 L 559.953125 683.320312 C 559.765625 682.410156 559.4375 681.609375 558.972656 680.917969 C 558.507812 680.226562 557.945312 679.644531 557.285156 679.171875 C 556.625 678.699219 555.894531 678.34375 555.09375 678.105469 C 554.292969 677.867188 553.457031 677.746094 552.585938 677.746094 C 551.003906 677.746094 549.570312 678.148438 548.285156 678.949219 C 547.003906 679.75 545.984375 680.929688 545.230469 682.488281 C 544.476562 684.050781 544.101562 685.964844 544.101562 688.230469 C 544.101562 690.496094 544.476562 692.410156 545.230469 693.96875 C 545.984375 695.53125 547.003906 696.710938 548.285156 697.511719 C 549.570312 698.3125 551.003906 698.710938 552.585938 698.710938 C 553.457031 698.710938 554.292969 698.59375 555.09375 698.355469 C 555.894531 698.117188 556.625 697.757812 557.285156 697.289062 C 557.945312 696.8125 558.507812 696.230469 558.972656 695.535156 C 559.4375 694.839844 559.765625 694.042969 559.953125 693.136719 L 563.121094 693.136719 C 562.882812 694.476562 562.449219 695.675781 561.816406 696.730469 C 561.1875 697.789062 560.402344 698.683594 559.464844 699.421875 C 558.527344 700.160156 557.476562 700.71875 556.3125 701.101562 C 555.152344 701.488281 553.910156 701.679688 552.585938 701.679688 C 550.355469 701.679688 548.367188 701.132812 546.628906 700.042969 C 544.894531 698.953125 543.523438 697.402344 542.527344 695.386719 C 541.53125 693.378906 541.03125 690.992188 541.03125 688.230469 C 541.03125 685.46875 541.53125 683.082031 542.527344 681.070312 C 543.523438 679.058594 544.894531 677.507812 546.628906 676.417969 C 548.367188 675.328125 550.355469 674.78125 552.585938 674.78125 C 553.910156 674.78125 555.152344 674.972656 556.3125 675.355469 C 557.476562 675.738281 558.527344 676.300781 559.464844 677.039062 C 560.402344 677.773438 561.1875 678.667969 561.816406 679.722656 C 562.449219 680.773438 562.882812 681.972656 563.121094 683.320312 "/>
<path style=" stroke:none;fill-rule:nonzero;fill:rgb(14.898682%,14.898682%,14.898682%);fill-opacity:1;" d="M 583.570312 701.320312 L 583.570312 675.136719 L 599.371094 675.136719 L 599.371094 677.953125 L 586.742188 677.953125 L 586.742188 686.796875 L 598.554688 686.796875 L 598.554688 689.609375 L 586.742188 689.609375 L 586.742188 698.507812 L 599.578125 698.507812 L 599.578125 701.320312 Z M 583.570312 701.320312 "/>
<path style=" stroke:none;fill-rule:nonzero;fill:rgb(14.898682%,14.898682%,14.898682%);fill-opacity:1;" d="M 641.195312 675.140625 L 641.195312 701.320312 L 638.128906 701.320312 L 623.863281 680.765625 L 623.605469 680.765625 L 623.605469 701.320312 L 620.4375 701.320312 L 620.4375 675.140625 L 623.503906 675.140625 L 637.820312 695.746094 L 638.078125 695.746094 L 638.078125 675.140625 Z M 641.195312 675.140625 "/>
<path style=" stroke:none;fill-rule:nonzero;fill:rgb(14.898682%,14.898682%,14.898682%);fill-opacity:1;" d="M 661.441406 677.953125 L 661.441406 675.136719 L 681.078125 675.136719 L 681.078125 677.953125 L 672.84375 677.953125 L 672.84375 701.320312 L 669.675781 701.320312 L 669.675781 677.953125 Z M 661.441406 677.953125 "/>
<path style=" stroke:none;fill-rule:nonzero;fill:rgb(14.898682%,14.898682%,14.898682%);fill-opacity:1;" d="M 701.324219 701.320312 L 701.324219 675.136719 L 717.125 675.136719 L 717.125 677.953125 L 704.492188 677.953125 L 704.492188 686.796875 L 716.304688 686.796875 L 716.304688 689.609375 L 704.492188 689.609375 L 704.492188 698.507812 L 717.328125 698.507812 L 717.328125 701.320312 Z M 701.324219 701.320312 "/>
<path style=" stroke:none;fill-rule:nonzero;fill:rgb(14.898682%,14.898682%,14.898682%);fill-opacity:1;" d="M 750.511719 689.558594 L 756.957031 701.320312 L 753.273438 701.320312 L 746.933594 689.558594 Z M 738.1875 701.320312 L 738.1875 675.140625 L 747.035156 675.140625 C 749.082031 675.140625 750.757812 675.488281 752.074219 676.179688 C 753.382812 676.875 754.355469 677.828125 754.988281 679.039062 C 755.617188 680.246094 755.933594 681.625 755.933594 683.167969 C 755.933594 684.710938 755.617188 686.078125 754.988281 687.269531 C 754.355469 688.464844 753.390625 689.398438 752.085938 690.078125 C 750.78125 690.753906 749.117188 691.09375 747.085938 691.09375 L 739.925781 691.09375 L 739.925781 688.230469 L 746.984375 688.230469 C 748.382812 688.230469 749.507812 688.023438 750.367188 687.617188 C 751.222656 687.207031 751.84375 686.625 752.230469 685.871094 C 752.621094 685.117188 752.8125 684.214844 752.8125 683.167969 C 752.8125 682.117188 752.617188 681.203125 752.226562 680.417969 C 751.832031 679.636719 751.207031 679.027344 750.347656 678.597656 C 749.484375 678.164062 748.347656 677.953125 746.933594 677.953125 L 741.359375 677.953125 L 741.359375 701.320312 Z M 738.1875 701.320312 "/>
<path style=" stroke:none;fill-rule:nonzero;fill:rgb(14.898682%,14.898682%,14.898682%);fill-opacity:1;" d="M 980.425781 406.300781 L 1000.609375 386.242188 L 1011.625 397.226562 L 1011.742188 397.835938 L 989.105469 420.179688 C 978.460938 428.324219 963.988281 427.648438 953.949219 418.878906 L 932.910156 397.835938 L 933.03125 397.226562 L 944.042969 386.242188 L 964.230469 406.300781 L 964.230469 378.140625 L 964.589844 377.777344 L 980.0625 377.777344 L 980.425781 378.140625 Z M 980.425781 406.300781 "/>
<path style=" stroke:none;fill-rule:nonzero;fill:rgb(14.898682%,14.898682%,14.898682%);fill-opacity:1;" d="M 962.050781 486.398438 L 946.589844 482.28125 L 953.832031 454.730469 L 929.078125 468.734375 L 928.722656 468.359375 L 921.230469 454.765625 L 944.972656 441.15625 L 945.371094 440.46875 L 918.394531 433.230469 L 922.398438 417.84375 L 950.742188 425.308594 C 964.328125 429.375 972.363281 442.648438 969.921875 456.675781 C 969.625 458.386719 968.992188 460.359375 968.558594 462.085938 C 966.523438 470.214844 963.980469 478.238281 962.050781 486.398438 "/>
<path style=" stroke:none;fill-rule:nonzero;fill:rgb(14.898682%,14.898682%,14.898682%);fill-opacity:1;" d="M 1002.105469 440.472656 L 1002.503906 441.15625 L 1026.246094 454.765625 L 1026.238281 455.273438 L 1018.398438 468.734375 L 993.644531 454.730469 L 1000.910156 482.144531 L 985.777344 486.34375 C 985.355469 486.28125 984.914062 484.304688 984.769531 483.792969 C 982.386719 475.570312 979.507812 465.933594 977.808594 457.632812 C 975.011719 444.011719 981.734375 431.230469 994.546875 426.023438 L 1024.929688 417.777344 L 1029.160156 433.0625 Z M 1002.105469 440.472656 "/>
</g>
</svg>
